<svg id="Capa_1" data-name="Capa 1" xmlns="http://www.w3.org/2000/svg" viewBox="0 0 1080 1080"><defs><style>.cls-1{fill:none;}.cls-2{fill:#fefefe;}.cls-3{fill:none;}</style></defs><path class="cls-1" d="M1079.91,540.54q0,267.4.09,534.81c0,3.67-.74,4.63-4.56,4.63q-535.34-.17-1070.68,0C.5,1080,0,1078.89,0,1075Q.16,540,0,4.91C0,.92.71,0,4.82,0Q539.92.2,1075,0c4.49,0,5,1.25,5,5.22Q1079.84,272.88,1079.91,540.54ZM366.54,1066H863.82a63.77,63.77,0,0,1,6.49.23c10.77,1.12,13.25-.28,17.52-10,.19-.45.26-1,.45-1.41Q915.84,988.38,943.4,922q25.65-61.53,51.45-123,23.37-56,46.62-112.1,12.48-30,25.09-59.86c1.91-4.5,1.93-7.95-2.63-11-3.44-2.27-6.29-5.4-9.47-8.06Q986.77,551.49,919,495c-1.46-1.22-2.17-2.33-2-4.17q1.62-13.83,3.17-27.67c1.89-16.64,3.81-33.27,5.66-49.92,1.52-13.67,2.93-27.35,4.43-41q2.76-25.22,5.61-50.4c1.56-13.67,2.94-27.36,4.88-41,1.59-11.14.9-13.74-7.31-19Q888.73,233.27,844,204.65,757.52,149.5,671,94.4c-38.95-24.86-78.19-49.28-116.58-75-12.38-8.28-22.59-9.67-34-.08a14.15,14.15,0,0,1-1.57,1.23Q471,51.13,423.06,81.65q-85.62,54.69-171.2,109.44c-36.26,23.18-72.42,46.49-108.85,69.4-7.54,4.75-12.44,9.69-9,19.13a8.58,8.58,0,0,1,.09,2c1.71,16,3.37,32,5.16,48,1.87,16.62,3.93,33.21,5.78,49.83s3.47,33.31,5.32,49.95c2.16,19.45,4.37,38.89,6.76,58.32.54,4.3-.89,7-4.17,9.73-17.71,14.51-35.26,29.2-52.86,43.85C78.76,559,57.33,576.63,36.19,594.59c-9.24,7.85-19,15.07-27.79,23.47-2,1.91-2.47,3.48-1.36,6,2.13,4.81,4,9.76,6,14.62q25.89,62,51.8,124,30.78,73.89,61.43,147.82,23,55.37,46.15,110.69,8.31,19.88,16.72,39.7c1.49,3.53,3.88,5.14,8,5.22,4.82.1,9.61-.13,14.42-.13Q289.06,1066,366.54,1066Z" transform="translate(0 0)"/><path class="cls-2" d="M366.54,1066q-77.49,0-155,0c-4.81,0-9.6.23-14.42.13-4.16-.08-6.55-1.69-8-5.22q-8.38-19.83-16.72-39.7-23.1-55.33-46.15-110.69-30.73-73.9-61.43-147.82-25.83-62-51.8-124c-2-4.86-3.85-9.81-6-14.62-1.11-2.51-.63-4.08,1.36-6,8.78-8.4,18.55-15.62,27.79-23.47,21.14-18,42.57-35.57,63.9-53.31,17.6-14.65,35.15-29.34,52.86-43.85,3.28-2.69,4.71-5.43,4.17-9.73-2.39-19.43-4.6-38.87-6.76-58.32-1.85-16.64-3.47-33.31-5.32-49.95s-3.91-33.21-5.78-49.83c-1.79-16-3.45-32-5.16-48a8.58,8.58,0,0,0-.09-2c-3.44-9.44,1.46-14.38,9-19.13,36.43-22.91,72.59-46.22,108.85-69.4q85.61-54.72,171.2-109.44Q471,51.07,518.93,20.57a14.15,14.15,0,0,0,1.57-1.23c11.36-9.59,21.57-8.2,34,.08,38.39,25.7,77.63,50.12,116.58,75Q757.47,149.55,844,204.65q44.79,28.57,89.53,57.24c8.21,5.25,8.9,7.85,7.31,19-1.94,13.62-3.32,27.31-4.88,41q-2.86,25.18-5.61,50.4c-1.5,13.67-2.91,27.35-4.43,41-1.85,16.65-3.77,33.28-5.66,49.92q-1.58,13.83-3.17,27.67c-.21,1.84.5,2.95,2,4.17q67.79,56.41,135.45,113c3.18,2.66,6,5.79,9.47,8.06,4.56,3,4.54,6.47,2.63,11q-12.68,29.88-25.09,59.86-23.34,56-46.62,112.1-25.67,61.53-51.45,123-27.64,66.35-55.12,132.75c-.19.45-.26,1-.45,1.41-4.27,9.77-6.75,11.17-17.52,10a63.77,63.77,0,0,0-6.49-.23H366.54Zm170.56-50.61a33.82,33.82,0,0,0,11.71-2.2q103-36.92,206.07-73.69a13,13,0,0,0,7.88-6.94q47.16-95.4,94.5-190.74c2.51-5.07,4.93-10.18,7.45-15.24a3.68,3.68,0,0,0-.72-4.84c-3.74-3.79-7.23-7.82-10.92-11.67C839,695.38,825,680.67,810.73,666.19c-2.38-2.42-.64-3.43.52-4.83,7.64-9.25,15.11-18.65,23.09-27.6,4.06-4.54,4.59-8.52,2.2-14.18Q799.52,531.89,763,444c-1.51-3.61-3.62-6-7.49-7.22-5.73-1.74-11.32-4-17-5.88a8.42,8.42,0,0,1-5.08-4.38c-22.77-43-45.8-85.82-68.28-129a27.73,27.73,0,0,0-15.35-14c-34.33-13.94-68.45-28.4-102.59-42.81-5.83-2.45-10.91-4-17.56-1.13C492.93,255.41,456,270.69,419,286a12.4,12.4,0,0,0-6.73,6.07c-22.26,42.12-44.79,84.1-66.67,126.41-4.23,8.16-9.17,14-18.3,15.52-10.56,1.76-15.29,8.48-19.24,18.13C285.26,507.92,261.78,563.46,238.25,619c-2.55,6-2.07,10.31,2.25,15.15,7.87,8.81,15.23,18.09,22.77,27.2,1.18,1.43,2.91,2.45.55,4.86-16.32,16.65-32.6,33.35-48.55,50.36-8.25,8.78-7.66,5.83-2.42,16.45,31.5,63.76,63.51,127.28,94.75,191.17,4.69,9.58,10.58,14.89,20.66,18.43,65.7,23,131.15,46.76,196.67,70.29A35.38,35.38,0,0,0,537.1,1015.36Z" transform="translate(0 0)"/><path class="cls-3" d="M537.1,1015.36a35.38,35.38,0,0,1-12.17-2.48c-65.52-23.53-131-47.26-196.67-70.29-10.08-3.54-16-8.85-20.66-18.43C276.36,860.27,244.35,796.75,212.85,733c-5.24-10.62-5.83-7.67,2.42-16.45,15.95-17,32.23-33.71,48.55-50.36,2.36-2.41.63-3.43-.55-4.86-7.54-9.11-14.9-18.39-22.77-27.2-4.32-4.84-4.8-9.12-2.25-15.15,23.53-55.51,47-111,69.82-166.86,3.95-9.65,8.68-16.37,19.24-18.13,9.13-1.53,14.07-7.36,18.3-15.52,21.88-42.31,44.41-84.29,66.67-126.41A12.4,12.4,0,0,1,419,286c37-15.29,73.92-30.57,110.64-46.4,6.65-2.87,11.73-1.32,17.56,1.13,34.14,14.41,68.26,28.87,102.59,42.81a27.73,27.73,0,0,1,15.35,14c22.48,43.14,45.51,86,68.28,129a8.42,8.42,0,0,0,5.08,4.38c5.68,1.92,11.27,4.14,17,5.88,3.87,1.18,6,3.61,7.49,7.22q36.64,87.84,73.54,175.59c2.39,5.66,1.86,9.64-2.2,14.18-8,9-15.45,18.35-23.09,27.6-1.16,1.4-2.9,2.41-.52,4.83C825,680.67,839,695.38,853.07,710c3.69,3.85,7.18,7.88,10.92,11.67a3.68,3.68,0,0,1,.72,4.84c-2.52,5.06-4.94,10.17-7.45,15.24Q810,837.16,762.76,932.53a13,13,0,0,1-7.88,6.94q-103.07,36.76-206.07,73.69A33.82,33.82,0,0,1,537.1,1015.36ZM694.28,517.09c-.81,1.4-1.12,2-1.48,2.55-16.54,25.72-34.56,50.43-51.91,75.6q-41,59.5-82.5,118.67c-2.95,4.19-2.34,6.17,1.22,9.15,14,11.76,27.85,23.73,41.66,35.73a11.78,11.78,0,0,0,8.51,3.23q39.47-.64,78.94-1a7.48,7.48,0,0,0,6.32-3.09q24.66-30.09,49.52-60,29.58-35.74,59.2-71.45c2.35-2.83,3-5.16,1.42-8.81q-32-75.95-63.64-152a10.41,10.41,0,0,0-6.48-6.33q-93.49-33.57-186.9-67.39c-7.42-2.7-13.75-2.93-21.37-.14-62.48,22.9-125.15,45.31-187.78,67.82-2.5.89-4.3,2.05-5.37,4.64q-32.2,77.21-64.6,154.34c-1.33,3.15-.6,5.07,1.46,7.51,10.62,12.58,21.06,25.31,31.54,38Q340.8,711,379.53,757.93a7.65,7.65,0,0,0,6.36,3.11q39.47.33,78.94,1a10.48,10.48,0,0,0,7.67-2.68C486.9,746.74,501.35,734.21,516,722c2.9-2.41,3-3.81.94-6.7-11.19-15.89-22.18-31.92-33.26-47.89q-41.52-59.76-83-119.53c-6.88-9.94-14.22-19.59-20-30.43,6.26-2.4,12.25-4.89,18.37-7q65.37-22.69,130.8-45.3a20.35,20.35,0,0,1,14-.26c15.47,5.52,31,10.88,46.52,16.27ZM537.18,987.24c1.33-.37,2.63-.65,3.86-1.09q97.05-34.77,194.09-69.52a12.28,12.28,0,0,0,7.38-6.73c14-28.51,28.15-56.92,42.28-85.36q22.71-45.7,45.49-91.4c1.26-2.52,2.15-4.33-.43-7-12.22-12.49-24.21-25.22-36.15-38-2.13-2.28-3-2.41-5.14.2-25.93,31.64-52.09,63.09-78,94.75-3.35,4.1-6.79,5.84-12.18,5.86q-47.73.13-95.45,1.08c-6.19.14-10.56-1.78-15-5.78-15.76-14.06-31.87-27.74-47.82-41.6-1.87-1.62-3.25-2-5.46-.07-16.76,14.7-33.7,29.18-50.49,43.85a13,13,0,0,1-9.37,3.6q-50.22-.75-100.44-1.15a10.62,10.62,0,0,1-9-4.18q-12.69-15.72-25.55-31.3c-17.78-21.56-35.64-43-53.34-64.65-2.29-2.79-3.49-2.75-5.94-.11Q263,707.57,245.1,726c-2.27,2.35-2.38,4.15-1,7q44.25,88.75,88.31,177.61a10.57,10.57,0,0,0,6.39,5.74q96.36,34.46,192.64,69.12C533.32,986.1,535.23,986.63,537.18,987.24Zm0-291.82c1.13-1.35,1.94-2.17,2.58-3.09q54.36-78.47,108.78-156.87c2.49-3.59,1.69-4.37-1.9-5.6q-52.32-17.85-104.52-36a13.65,13.65,0,0,0-9.61,0Q480.29,512,428,529.86c-4.5,1.53-3.77,3-1.62,6.12q46.58,66.87,93,133.88C525.19,678.29,531.07,686.71,537.14,695.42ZM694.21,415.14c.9-1.85,0-2.66-.4-3.45q-26.26-49.53-52.58-99a10.09,10.09,0,0,0-5.57-4.63q-47.31-19.85-94.58-39.74a9,9,0,0,0-7.59,0Q486,288.38,438.43,308.18a10.13,10.13,0,0,0-5.34,4.91q-25.77,48.65-51.61,97.26c-.64,1.21-2.37,2.6-1.08,3.95s2.81-.19,4.1-.65q34.23-12.24,68.38-24.68c5.52-2,11.31-3.41,17.19-6.71a33,33,0,0,1-9.84-9c-11.7-16.7-12.06-43.11-.8-60.36,10.86-16.63,29.26-16.63,39.37.53,10.47,17.76,10.09,36.28,1.66,54.84-.48,1.05-2,2-.63,3.78,4.91-1.76,10.08-3.12,14.79-5.4,14.62-7.07,29-8.18,43.89-.56,5.22,2.67,11.08,4.09,16.79,6.14.29-2.43-1.14-3.58-1.76-5.05-8.43-20.06-8.16-39.5,4.87-57.59,8.42-11.7,24.19-11.91,33.53-1,15,17.54,15.14,49.93.12,67.51-2.06,2.41-4.7,4.32-7.42,6.78Z" transform="translate(0 0)"/><path class="cls-2" d="M694.28,517.09l-103.9-36c-15.52-5.39-31-10.75-46.52-16.27a20.35,20.35,0,0,0-14,.26q-65.4,22.68-130.8,45.3c-6.12,2.13-12.11,4.62-18.37,7,5.82,10.84,13.16,20.49,20,30.43q41.38,59.83,83,119.53c11.08,16,22.07,32,33.26,47.89,2,2.89,2,4.29-.94,6.7-14.68,12.26-29.13,24.79-43.53,37.38a10.48,10.48,0,0,1-7.67,2.68q-39.46-.6-78.94-1a7.65,7.65,0,0,1-6.36-3.11Q340.82,711,302,664.07c-10.48-12.69-20.92-25.42-31.54-38-2.06-2.44-2.79-4.36-1.46-7.51q32.43-77.12,64.6-154.34c1.07-2.59,2.87-3.75,5.37-4.64,62.63-22.51,125.3-44.92,187.78-67.82,7.62-2.79,14-2.56,21.37.14q93.35,34,186.9,67.39a10.41,10.41,0,0,1,6.48,6.33q31.69,76.07,63.64,152c1.54,3.65.93,6-1.42,8.81q-29.68,35.65-59.2,71.45-24.79,30-49.52,60a7.48,7.48,0,0,1-6.32,3.09q-39.47.38-78.94,1a11.78,11.78,0,0,1-8.51-3.23c-13.81-12-27.65-24-41.66-35.73-3.56-3-4.17-5-1.22-9.15q41.52-59.14,82.5-118.67c17.35-25.17,35.37-49.88,51.91-75.6C693.16,519.08,693.47,518.49,694.28,517.09Z" transform="translate(0 0)"/><path class="cls-2" d="M537.18,987.24c-1.95-.61-3.86-1.14-5.73-1.81q-96.32-34.59-192.64-69.12a10.57,10.57,0,0,1-6.39-5.74Q288.33,821.73,244.11,733c-1.39-2.8-1.28-4.6,1-7Q263,707.55,280.5,688.7c2.45-2.64,3.65-2.68,5.94.11,17.7,21.61,35.56,43.09,53.34,64.65q12.86,15.59,25.55,31.3a10.62,10.62,0,0,0,9,4.18q50.22.38,100.44,1.15a13,13,0,0,0,9.37-3.6c16.79-14.67,33.73-29.15,50.49-43.85,2.21-1.93,3.59-1.55,5.46.07,15.95,13.86,32.06,27.54,47.82,41.6,4.48,4,8.85,5.92,15,5.78q47.72-1,95.45-1.08c5.39,0,8.83-1.76,12.18-5.86,25.91-31.66,52.07-63.11,78-94.75,2.14-2.61,3-2.48,5.14-.2,11.94,12.76,23.93,25.49,36.15,38,2.58,2.63,1.69,4.44.43,7q-22.8,45.68-45.49,91.4c-14.13,28.44-28.3,56.85-42.28,85.36a12.28,12.28,0,0,1-7.38,6.73Q638.06,951.33,541,986.15C539.81,986.59,538.51,986.87,537.18,987.24Z" transform="translate(0 0)"/><path class="cls-2" d="M537.14,695.42c-6.07-8.71-11.95-17.13-17.81-25.56q-46.47-67-93-133.88c-2.15-3.09-2.88-4.59,1.62-6.12q52.32-17.8,104.49-36.05a13.65,13.65,0,0,1,9.61,0q52.21,18.17,104.52,36c3.59,1.23,4.39,2,1.9,5.6Q594,613.79,539.72,692.33C539.08,693.25,538.27,694.07,537.14,695.42Zm27.29-129,.56,1.17-18.8,18.55a14.39,14.39,0,0,0-1.39,1.43c-1.32,1.69-2.71.9-4.41.57-8.78-1.76-16.91,2.89-20.73,11.57-2.82,6.42-.07,16.27,5.43,20.74,6.28,5.12,18.62,4.6,23.51,0s7.09-9.77,6.4-16.3c-.24-2.2-.16-4,1.71-5.83,6.95-6.7,13.73-13.59,20.48-20.5,1.42-1.45,3.13-2.58,4.81-1.7,3.14,1.64,5.83.11,8.53-.68,12.48-3.61,17-20.37,8-29.55-8.77-9-21.4-8-29.34,2.54a5.62,5.62,0,0,1-5.2,2.59q-27-.15-54,0a6.35,6.35,0,0,1-6-3.16c-6.21-9-18.09-10.56-26.93-3.77-7.07,5.43-8.47,18.79-2.69,25.65,7.09,8.4,20.49,9.8,27.36,1.46,4-4.86,8.07-4.64,12.87-4.66q22.49-.09,45-.11Z" transform="translate(0 0)"/><path class="cls-2" d="M694.21,415.14l-89.57-32.27c2.72-2.46,5.36-4.37,7.42-6.78,15-17.58,14.91-50-.12-67.51-9.34-10.9-25.11-10.69-33.53,1-13,18.09-13.3,37.53-4.87,57.59.62,1.47,2.05,2.62,1.76,5.05-5.71-2.05-11.57-3.47-16.79-6.14-14.85-7.62-29.27-6.51-43.89.56-4.71,2.28-9.88,3.64-14.79,5.4-1.35-1.83.15-2.73.63-3.78,8.43-18.56,8.81-37.08-1.66-54.84-10.11-17.16-28.51-17.16-39.37-.53-11.26,17.25-10.9,43.66.8,60.36a33,33,0,0,0,9.84,9c-5.88,3.3-11.67,4.69-17.19,6.71q-34.12,12.5-68.38,24.68c-1.29.46-2.93,1.9-4.1.65s.44-2.74,1.08-3.95q25.77-48.64,51.61-97.26a10.13,10.13,0,0,1,5.34-4.91q47.57-19.86,95.06-39.89a9,9,0,0,1,7.59,0q47.28,19.9,94.58,39.74a10.09,10.09,0,0,1,5.57,4.63q26.24,49.54,52.58,99C694.23,412.48,695.11,413.29,694.21,415.14Z" transform="translate(0 0)"/><path class="cls-3" d="M564.43,566.46h-4.88q-22.49,0-45,.11c-4.8,0-8.86-.2-12.87,4.66-6.87,8.34-20.27,6.94-27.36-1.46-5.78-6.86-4.38-20.22,2.69-25.65,8.84-6.79,20.72-5.26,26.93,3.77a6.35,6.35,0,0,0,6,3.16q27-.15,54,0a5.62,5.62,0,0,0,5.2-2.59c7.94-10.54,20.57-11.53,29.34-2.54,9,9.18,4.48,25.94-8,29.55-2.7.79-5.39,2.32-8.53.68-1.68-.88-3.39.25-4.81,1.7-6.75,6.91-13.53,13.8-20.48,20.5-1.87,1.8-2,3.63-1.71,5.83.69,6.53-1.58,11.75-6.4,16.3s-17.23,5.13-23.51,0c-5.5-4.47-8.25-14.32-5.43-20.74,3.82-8.68,12-13.33,20.73-11.57,1.7.33,3.09,1.12,4.41-.57a14.39,14.39,0,0,1,1.39-1.43L565,567.63Z" transform="translate(0 0)"/></svg>